<svg xmlns="http://www.w3.org/2000/svg" version="1.1" xmlns:xlink="http://www.w3.org/1999/xlink" xmlns:svgjs="http://svgjs.dev/svgjs" viewBox="0 0 21.966926862391272 9.85168962692894"><g transform="matrix(0.7879308753714588,0,0,0.7879308753714588,3.373873072890702,6.9067575009806355)"><rect width="24.61847823650129" height="24.61847823650129" x="-2.651551374110017" y="-14.823308244660108" fill="#ffffff"></rect><g transform="matrix(1,0,0,1,0,0)" clip-path="url(#SvgjsClipPath113227)"><g clip-path="url(#SvgjsClipPath113222c369d12f-d6cf-45b8-b19e-4b5d07aa02b1)"><path d=" M 13.161403488778848 -2.0783964354034348 L 8.857491571486442 -2.0783964354034348 L 8.857491571486442 -3.5192156702451083 L 13.161403488778848 -3.5192156702451083 Z" fill="#ffffff" transform="matrix(1,0,0,1,0,0)" fill-rule="nonzero"></path></g><g clip-path="url(#SvgjsClipPath113222c369d12f-d6cf-45b8-b19e-4b5d07aa02b1)"><path d=" M 7.964120173671614 -0.25 L 13.158527404127803 -0.25 L 13.158527404127803 -1.3760367285512363 L 7.964120173671614 -1.3760367285512363 Z" fill="#ef434f" transform="matrix(1,0,0,1,0,0)" fill-rule="nonzero"></path></g><g clip-path="url(#SvgjsClipPath113222c369d12f-d6cf-45b8-b19e-4b5d07aa02b1)"><path d=" M 7.194519591184597 -1.3800037418630255 L 13.424218120684854 -1.3800037418630255 L 13.424218120684854 -1.9430221061386428 L 7.194519591184597 -1.9430221061386428 Z" fill="#314f4f" transform="matrix(1,0,0,1,0,0)" fill-rule="nonzero"></path></g><g clip-path="url(#SvgjsClipPath113222c369d12f-d6cf-45b8-b19e-4b5d07aa02b1)"><path d=" M 13.158507478018059 -3.0372305209390773 L 8.86758752932176 -3.0372305209390773 M 13.158507478018059 -2.5700155281431574 L 8.86758752932176 -2.5700155281431574" fill="none" transform="matrix(1,0,0,1,0,0)" fill-rule="nonzero" stroke-dasharray="none" stroke-miterlimit="10" stroke-linejoin="miter" stroke-linecap="round" stroke-width="0.29058372508852587" stroke="#ac7f44"></path></g><g clip-path="url(#SvgjsClipPath113222c369d12f-d6cf-45b8-b19e-4b5d07aa02b1)"><path d=" M 13.158507478018059 -3.5183312630781134 L 8.86758752932176 -3.5183312630781134 L 8.86758752932176 -2.089016366840627 L 13.158507478018059 -2.089016366840627" fill="none" transform="matrix(1,0,0,1,0,0)" fill-rule="nonzero" stroke-dasharray="none" stroke-miterlimit="10" stroke-linejoin="round" stroke-linecap="round" stroke-width="0.29058372508852587" stroke="#d9bb72"></path></g><g clip-path="url(#SvgjsClipPath113222c369d12f-d6cf-45b8-b19e-4b5d07aa02b1)"><path d=" M 8.452161986354424 -4.172086886032742 L 13.424218120684854 -4.172086886032742 L 13.424218120684854 -5.268668540743946 L 8.452161986354424 -5.268668540743946 Z" fill="#314f4f" transform="matrix(1,0,0,1,0,0)" fill-rule="nonzero"></path></g><g clip-path="url(#SvgjsClipPath113222c369d12f-d6cf-45b8-b19e-4b5d07aa02b1)"><path d=" M 7.8528454502759395 -5.269561118739099 L 13.771530136131958 -5.269561118739099 L 13.771530136131958 -6.114138252818924 L 7.8528454502759395 -6.114138252818924 Z" fill="#a95e29" transform="matrix(1,0,0,1,0,0)" fill-rule="nonzero"></path></g><g clip-path="url(#SvgjsClipPath113222c369d12f-d6cf-45b8-b19e-4b5d07aa02b1)"><path d=" M 4.236218589250932 -0.25 L 5.216963455257906 -0.25 L 5.216963455257906 -5.870166934143915 L 4.236218589250932 -5.870166934143915 Z" fill="#d9bb72" transform="matrix(1,0,0,1,0,0)" fill-rule="nonzero"></path></g><g clip-path="url(#SvgjsClipPath113222c369d12f-d6cf-45b8-b19e-4b5d07aa02b1)"><path d=" M 2.6516481039315334 -5.384047081735107 L 3.5656479709676616 -0.2501368042836978 L 4.236172395992755 -0.3695439049685394 L 3.3222717042894216 -5.503454182419949 Z" fill="#461d16" transform="matrix(1,0,0,1,0,0)" fill-rule="nonzero"></path></g><g clip-path="url(#SvgjsClipPath113222c369d12f-d6cf-45b8-b19e-4b5d07aa02b1)"><path d=" M 14.924477456352166 -0.38582095781476244 L 15.812890087527258 -0.25004992721879216 L 16.53677084159591 -4.986564646161764 L 15.64835821042082 -5.12223650142494 Z" fill="#d9bb72" transform="matrix(1,0,0,1,0,0)" fill-rule="nonzero"></path></g><g clip-path="url(#SvgjsClipPath113222c369d12f-d6cf-45b8-b19e-4b5d07aa02b1)"><path d=" M 5.205692040670568 -0.5963211279219784 L 6.246537158351141 -0.25010004113561557 L 7.846830328326723 -5.060698733676242 L 6.806084385978944 -5.406919820462605 Z" fill="#a95e29" transform="matrix(1,0,0,1,0,0)" fill-rule="nonzero"></path></g><g clip-path="url(#SvgjsClipPath113222c369d12f-d6cf-45b8-b19e-4b5d07aa02b1)"><path d=" M 13.660732618853368 -0.4307474958871156 L 14.26798318155543 -0.2500500395351386 L 15.583048094413403 -4.6674185375447035 L 14.975896707044134 -4.848215169229476 Z" fill="#461d16" transform="matrix(1,0,0,1,0,0)" fill-rule="nonzero"></path></g><g clip-path="url(#SvgjsClipPath113222c369d12f-d6cf-45b8-b19e-4b5d07aa02b1)"><path d=" M 16.536736765114306 -0.25 L 18.02149067238404 -0.25 L 18.02149067238404 -5.691849685779012 L 16.536736765114306 -5.691849685779012 Z" fill="#314f4f" transform="matrix(1,0,0,1,0,0)" fill-rule="nonzero"></path></g><g clip-path="url(#SvgjsClipPath113222c369d12f-d6cf-45b8-b19e-4b5d07aa02b1)"><path d=" M 16.536736765114306 -2.565744020756682 L 18.02149067238404 -2.565744020756682 L 18.02149067238404 -3.376204840355124 L 16.536736765114306 -3.376204840355124 Z M 16.536736765114306 -3.74771563700414 L 18.02149067238404 -3.74771563700414 L 18.02149067238404 -4.558176456602581 L 16.536736765114306 -4.558176456602581 Z M 7.566724615163176 -3.6855327033418512 L 13.846407512391972 -3.6855327033418512 L 13.846407512391972 -4.172086886032742 L 7.566724615163176 -4.172086886032742 Z" fill="#ef434f" transform="matrix(1,0,0,1,0,0)" fill-rule="nonzero"></path></g><g clip-path="url(#SvgjsClipPath113222c369d12f-d6cf-45b8-b19e-4b5d07aa02b1)"><path d=" M 10.570348744184027 -3.6855327033418512 L 10.842783383371119 -3.6855327033418512 L 10.842783383371119 -4.172086886032742 L 10.570348744184027 -4.172086886032742 Z M 11.15151619436108 -3.6855327033418512 L 11.423950833548172 -3.6855327033418512 L 11.423950833548172 -4.172086886032742 L 11.15151619436108 -4.172086886032742 Z M 11.732782819870927 -3.6855327033418512 L 12.005217459058018 -3.6855327033418512 L 12.005217459058018 -4.172086886032742 L 11.732782819870927 -4.172086886032742 Z" fill="#a95e29" transform="matrix(1,0,0,1,0,0)" fill-rule="nonzero"></path></g><g clip-path="url(#SvgjsClipPath113222c369d12f-d6cf-45b8-b19e-4b5d07aa02b1)"><path d=" M 8.7868787345366 -5.269561118739099 L 10.124158921940587 -5.269561118739099 L 10.124158921940587 -6.114138252818924 L 8.7868787345366 -6.114138252818924 Z" fill="#461d16" transform="matrix(1,0,0,1,0,0)" fill-rule="nonzero"></path></g><g clip-path="url(#SvgjsClipPath113222c369d12f-d6cf-45b8-b19e-4b5d07aa02b1)"><path d=" M 1.2938848158972167 -0.25 L 2.6560580118326786 -0.25 L 2.6560580118326786 -5.870166934143915 L 1.2938848158972167 -5.870166934143915 Z" fill="#314f4f" transform="matrix(1,0,0,1,0,0)" fill-rule="nonzero"></path></g><g clip-path="url(#SvgjsClipPath113222c369d12f-d6cf-45b8-b19e-4b5d07aa02b1)"><path d=" M 1.5981547369114137 -4.346833822417036 L 2.3518872661512757 -4.346833822417036 L 2.3518872661512757 -1.7733331117268794 L 1.5981547369114137 -1.7733331117268794 Z" fill="#a95e29" transform="matrix(1,0,0,1,0,0)" fill-rule="nonzero"></path></g></g><g><path d=" M 0.18 1.068 L 0.18 0.018000000000000016 L 0.3165 0.018000000000000016 L 0.3165 0.9855 L 0.858 0.9855 L 0.858 1.068 L 0.18 1.068 M 1.079984619140625 0.018000000000000016 L 1.079984619140625 1.068 L 1.757984619140625 1.068 L 1.757984619140625 0.9855 L 1.216484619140625 0.9855 L 1.216484619140625 0.546 L 1.681484619140625 0.546 L 1.681484619140625 0.4770000000000001 L 1.216484619140625 0.4770000000000001 L 1.216484619140625 0.10050000000000003 L 1.757984619140625 0.10050000000000003 L 1.757984619140625 0.018000000000000016 L 1.079984619140625 0.018000000000000016 M 1.97996923828125 0.018000000000000016 L 1.97996923828125 1.068 L 2.11646923828125 1.068 L 2.11646923828125 0.6045 L 2.18246923828125 0.6045 Q 2.22446923828125 0.6045 2.25221923828125 0.6120000000000001 Q 2.27996923828125 0.6195 2.30246923828125 0.6375000000000001 Q 2.32496923828125 0.6555 2.34446923828125 0.684 Q 2.36396923828125 0.7125000000000001 2.39096923828125 0.7545000000000001 L 2.50946923828125 0.93 Q 2.53196923828125 0.9645 2.55371923828125 0.9930000000000001 Q 2.57546923828125 1.0215 2.60096923828125 1.04175 Q 2.62646923828125 1.062 2.65871923828125 1.074 Q 2.69096923828125 1.086 2.73596923828125 1.086 Q 2.76896923828125 1.086 2.78996923828125 1.083 Q 2.81096923828125 1.08 2.83196923828125 1.068 L 2.83196923828125 1.0125 Q 2.82446923828125 1.014 2.81696923828125 1.01475 Q 2.80946923828125 1.0155 2.80196923828125 1.0155 Q 2.77046923828125 1.0155 2.74646923828125 1.0065 Q 2.72246923828125 0.9975 2.70146923828125 0.9802500000000001 Q 2.6804692382812503 0.9630000000000001 2.66096923828125 0.93825 Q 2.64146923828125 0.9135000000000001 2.62046923828125 0.8820000000000001 Q 2.55746923828125 0.7905 2.52296923828125 0.7357500000000001 Q 2.48846923828125 0.681 2.4682192382812502 0.651 Q 2.44796923828125 0.621 2.43521923828125 0.6075 Q 2.4224692382812503 0.5940000000000001 2.40446923828125 0.5850000000000001 L 2.38946923828125 0.5775000000000001 L 2.38946923828125 0.5715000000000001 Q 2.46146923828125 0.5670000000000001 2.51321923828125 0.54 Q 2.56496923828125 0.513 2.59796923828125 0.47250000000000003 Q 2.63096923828125 0.43200000000000005 2.64596923828125 0.38475000000000004 Q 2.66096923828125 0.3375 2.66096923828125 0.2925000000000001 Q 2.66096923828125 0.252 2.64521923828125 0.20400000000000007 Q 2.62946923828125 0.15600000000000003 2.59121923828125 0.11475000000000002 Q 2.55296923828125 0.07350000000000001 2.48696923828125 0.04574999999999996 Q 2.42096923828125 0.018000000000000016 2.32046923828125 0.018000000000000016 L 1.97996923828125 0.018000000000000016 M 2.11646923828125 0.08400000000000007 L 2.26796923828125 0.08400000000000007 Q 2.32496923828125 0.08400000000000007 2.37071923828125 0.10050000000000003 Q 2.41646923828125 0.11699999999999999 2.44946923828125 0.14625 Q 2.48246923828125 0.1755 2.49971923828125 0.21600000000000008 Q 2.51696923828125 0.25650000000000006 2.51696923828125 0.3045 Q 2.51696923828125 0.3450000000000001 2.50121923828125 0.3862500000000001 Q 2.48546923828125 0.4275000000000001 2.45396923828125 0.46125000000000005 Q 2.4224692382812503 0.495 2.37671923828125 0.516 Q 2.33096923828125 0.537 2.27096923828125 0.537 L 2.11646923828125 0.537 L 2.11646923828125 0.08400000000000007 M 3.8999956054687503 0.018000000000000016 L 3.8999956054687503 0.8205 L 3.89399560546875 0.8205 L 3.06149560546875 0 L 3.0539956054687503 0 L 3.0539956054687503 1.068 L 3.12299560546875 1.068 L 3.12299560546875 0.26550000000000007 L 3.12899560546875 0.26550000000000007 L 3.96149560546875 1.086 L 3.9689956054687503 1.086 L 3.9689956054687503 0.018000000000000016 L 3.8999956054687503 0.018000000000000016 M 4.201458984375001 0.8025 Q 4.204458984375001 0.867 4.235208984375 0.9195000000000001 Q 4.2659589843750005 0.9720000000000001 4.319208984375001 1.00875 Q 4.372458984375 1.0455 4.444458984375 1.06575 Q 4.516458984375 1.086 4.601958984375001 1.086 Q 4.688958984375001 1.086 4.758708984375001 1.0650000000000002 Q 4.8284589843750005 1.044 4.877958984375001 1.0050000000000001 Q 4.927458984375001 0.9660000000000001 4.954458984375 0.9105000000000001 Q 4.981458984375 0.8550000000000001 4.981458984375 0.7875000000000001 Q 4.981458984375 0.6945000000000001 4.934958984375 0.6352500000000001 Q 4.888458984375 0.5760000000000001 4.818708984375 0.53625 Q 4.748958984375 0.49650000000000005 4.667208984375001 0.46950000000000003 Q 4.585458984375 0.4425 4.515708984375 0.4125000000000001 Q 4.445958984375 0.38250000000000006 4.399458984375 0.3435 Q 4.352958984375 0.3045 4.352958984375 0.24 Q 4.352958984375 0.20400000000000007 4.368708984375001 0.1725 Q 4.384458984375001 0.14100000000000001 4.415208984375001 0.11775000000000002 Q 4.445958984375 0.09450000000000003 4.490958984375 0.08025000000000004 Q 4.535958984375 0.06600000000000006 4.5944589843750006 0.06600000000000006 Q 4.691958984375001 0.06600000000000006 4.760208984375001 0.10725000000000007 Q 4.8284589843750005 0.14850000000000008 4.840458984375 0.237 L 4.942458984375 0.237 Q 4.933458984375 0.1815 4.901958984375001 0.1372500000000001 Q 4.870458984375 0.09300000000000008 4.822458984375 0.06225000000000014 Q 4.774458984375 0.031500000000000083 4.713708984375001 0.01574999999999993 Q 4.652958984375 0 4.586958984375 0 Q 4.517958984375 0 4.455708984375001 0.018000000000000016 Q 4.393458984375 0.03600000000000003 4.346208984375 0.07050000000000001 Q 4.298958984375 0.1050000000000001 4.271208984375001 0.15750000000000008 Q 4.243458984375001 0.21000000000000008 4.243458984375001 0.2775000000000001 Q 4.243458984375001 0.366 4.2884589843750005 0.42000000000000004 Q 4.333458984375 0.4740000000000001 4.401708984375 0.51 Q 4.469958984375 0.546 4.549458984375001 0.5715000000000001 Q 4.628958984375 0.597 4.697208984375001 0.6292500000000001 Q 4.765458984375001 0.6615 4.810458984375001 0.7080000000000001 Q 4.855458984375001 0.7545000000000001 4.855458984375001 0.8325 Q 4.855458984375001 0.93 4.784208984375001 0.9750000000000001 Q 4.712958984375001 1.02 4.5944589843750006 1.02 Q 4.4999589843750005 1.02 4.442958984375 0.9952500000000001 Q 4.385958984375001 0.9705 4.355958984375 0.936 Q 4.325958984375 0.9015000000000001 4.315458984375001 0.86475 Q 4.304958984375 0.8280000000000001 4.303458984375 0.8025 L 4.201458984375001 0.8025 M 5.260458984375 0.018000000000000016 L 5.260458984375 1.068 L 5.938458984375 1.068 L 5.938458984375 0.9855 L 5.396958984375001 0.9855 L 5.396958984375001 0.546 L 5.861958984375001 0.546 L 5.861958984375001 0.4770000000000001 L 5.396958984375001 0.4770000000000001 L 5.396958984375001 0.10050000000000003 L 5.938458984375 0.10050000000000003 L 5.938458984375 0.018000000000000016 L 5.260458984375 0.018000000000000016 M 6.220443603515625 0.018000000000000016 L 6.220443603515625 1.068 L 6.356943603515625 1.068 L 6.356943603515625 0.018000000000000016 L 6.220443603515625 0.018000000000000016 M 7.162459716796875 1.068 L 7.162459716796875 0.10050000000000003 L 7.5644597167968755 0.10050000000000003 L 7.5644597167968755 0.018000000000000016 L 6.623959716796875 0.018000000000000016 L 6.623959716796875 0.10050000000000003 L 7.0259597167968755 0.10050000000000003 L 7.0259597167968755 1.068 L 7.162459716796875 1.068 M 7.771447998046875 0.018000000000000016 L 7.771447998046875 1.068 L 8.449447998046875 1.068 L 8.449447998046875 0.9855 L 7.907947998046875 0.9855 L 7.907947998046875 0.546 L 8.372947998046875 0.546 L 8.372947998046875 0.4770000000000001 L 7.907947998046875 0.4770000000000001 L 7.907947998046875 0.10050000000000003 L 8.449447998046875 0.10050000000000003 L 8.449447998046875 0.018000000000000016 L 7.771447998046875 0.018000000000000016 M 9.25339599609375 0.018000000000000016 L 9.25339599609375 1.068 L 9.38989599609375 1.068 L 9.38989599609375 0.018000000000000016 L 9.25339599609375 0.018000000000000016 M 10.652912109375 0.018000000000000016 L 10.652912109375 0.8205 L 10.646912109375 0.8205 L 9.814412109375 0 L 9.806912109375 0 L 9.806912109375 1.068 L 9.875912109375001 1.068 L 9.875912109375001 0.26550000000000007 L 9.881912109375001 0.26550000000000007 L 10.714412109375 1.086 L 10.721912109375001 1.086 L 10.721912109375001 0.018000000000000016 L 10.652912109375 0.018000000000000016 M 11.07887548828125 0.018000000000000016 L 11.07887548828125 1.068 L 11.21537548828125 1.068 L 11.21537548828125 0.546 L 11.68037548828125 0.546 L 11.68037548828125 0.4770000000000001 L 11.21537548828125 0.4770000000000001 L 11.21537548828125 0.10050000000000003 L 11.756875488281251 0.10050000000000003 L 11.756875488281251 0.018000000000000016 L 11.07887548828125 0.018000000000000016 M 11.873860107421875 0.543 Q 11.873860107421875 0.627 11.906110107421876 0.7222500000000001 Q 11.938360107421875 0.8175000000000001 12.007360107421876 0.8985000000000001 Q 12.076360107421875 0.9795 12.182860107421876 1.03275 Q 12.289360107421876 1.086 12.437860107421875 1.086 Q 12.538360107421875 1.086 12.620110107421876 1.06125 Q 12.701860107421876 1.0365 12.767110107421875 0.9945 Q 12.832360107421875 0.9525 12.880360107421875 0.89775 Q 12.928360107421875 0.8430000000000001 12.959110107421875 0.7822500000000001 Q 12.989860107421876 0.7215 13.005610107421875 0.66 Q 13.021360107421875 0.5985 13.021360107421875 0.543 Q 13.021360107421875 0.4590000000000001 12.986860107421876 0.36375 Q 12.952360107421875 0.26850000000000007 12.880360107421875 0.1875 Q 12.808360107421876 0.10650000000000004 12.698110107421876 0.05325000000000002 Q 12.587860107421875 0 12.437860107421875 0 Q 12.289360107421876 0 12.182860107421876 0.05249999999999999 Q 12.076360107421875 0.1050000000000001 12.007360107421876 0.18525000000000003 Q 11.938360107421875 0.26550000000000007 11.906110107421876 0.36150000000000004 Q 11.873860107421875 0.4575 11.873860107421875 0.543 M 12.020860107421875 0.543 Q 12.020860107421875 0.43800000000000006 12.053110107421876 0.35025000000000006 Q 12.085360107421875 0.26250000000000007 12.141610107421876 0.1995 Q 12.197860107421874 0.13650000000000007 12.274360107421876 0.10125000000000006 Q 12.350860107421875 0.06600000000000006 12.440860107421875 0.06600000000000006 Q 12.529360107421875 0.06600000000000006 12.608110107421876 0.10125000000000006 Q 12.686860107421875 0.13650000000000007 12.746110107421876 0.1995 Q 12.805360107421876 0.26250000000000007 12.839860107421876 0.35025000000000006 Q 12.874360107421875 0.43800000000000006 12.874360107421875 0.543 Q 12.874360107421875 0.6480000000000001 12.839860107421876 0.7357500000000001 Q 12.805360107421876 0.8235000000000001 12.746110107421876 0.8865000000000001 Q 12.686860107421875 0.9495 12.608110107421876 0.98475 Q 12.529360107421875 1.02 12.440860107421875 1.02 Q 12.350860107421875 1.02 12.274360107421876 0.98475 Q 12.197860107421874 0.9495 12.141610107421876 0.8865000000000001 Q 12.085360107421875 0.8235000000000001 12.053110107421876 0.7357500000000001 Q 12.020860107421875 0.6480000000000001 12.020860107421875 0.543 M 13.273345458984375 0.018000000000000016 L 13.273345458984375 1.068 L 13.409845458984375 1.068 L 13.409845458984375 0.6045 L 13.475845458984375 0.6045 Q 13.517845458984375 0.6045 13.545595458984375 0.6120000000000001 Q 13.573345458984376 0.6195 13.595845458984375 0.6375000000000001 Q 13.618345458984376 0.6555 13.637845458984375 0.684 Q 13.657345458984375 0.7125000000000001 13.684345458984374 0.7545000000000001 L 13.802845458984375 0.93 Q 13.825345458984375 0.9645 13.847095458984375 0.9930000000000001 Q 13.868845458984374 1.0215 13.894345458984375 1.04175 Q 13.919845458984375 1.062 13.952095458984376 1.074 Q 13.984345458984375 1.086 14.029345458984375 1.086 Q 14.062345458984375 1.086 14.083345458984375 1.083 Q 14.104345458984376 1.08 14.125345458984375 1.068 L 14.125345458984375 1.0125 Q 14.117845458984375 1.014 14.110345458984375 1.01475 Q 14.102845458984376 1.0155 14.095345458984376 1.0155 Q 14.063845458984375 1.0155 14.039845458984376 1.0065 Q 14.015845458984375 0.9975 13.994845458984376 0.9802500000000001 Q 13.973845458984375 0.9630000000000001 13.954345458984376 0.93825 Q 13.934845458984375 0.9135000000000001 13.913845458984376 0.8820000000000001 Q 13.850845458984375 0.7905 13.816345458984376 0.7357500000000001 Q 13.781845458984375 0.681 13.761595458984376 0.651 Q 13.741345458984375 0.621 13.728595458984374 0.6075 Q 13.715845458984376 0.5940000000000001 13.697845458984375 0.5850000000000001 L 13.682845458984374 0.5775000000000001 L 13.682845458984374 0.5715000000000001 Q 13.754845458984375 0.5670000000000001 13.806595458984376 0.54 Q 13.858345458984376 0.513 13.891345458984375 0.47250000000000003 Q 13.924345458984375 0.43200000000000005 13.939345458984375 0.38475000000000004 Q 13.954345458984376 0.3375 13.954345458984376 0.2925000000000001 Q 13.954345458984376 0.252 13.938595458984375 0.20400000000000007 Q 13.922845458984375 0.15600000000000003 13.884595458984375 0.11475000000000002 Q 13.846345458984375 0.07350000000000001 13.780345458984375 0.04574999999999996 Q 13.714345458984376 0.018000000000000016 13.613845458984375 0.018000000000000016 L 13.273345458984375 0.018000000000000016 M 13.409845458984375 0.08400000000000007 L 13.561345458984375 0.08400000000000007 Q 13.618345458984376 0.08400000000000007 13.664095458984375 0.10050000000000003 Q 13.709845458984375 0.11699999999999999 13.742845458984375 0.14625 Q 13.775845458984374 0.1755 13.793095458984375 0.21600000000000008 Q 13.810345458984376 0.25650000000000006 13.810345458984376 0.3045 Q 13.810345458984376 0.3450000000000001 13.794595458984375 0.3862500000000001 Q 13.778845458984375 0.4275000000000001 13.747345458984375 0.46125000000000005 Q 13.715845458984376 0.495 13.670095458984376 0.516 Q 13.624345458984376 0.537 13.564345458984375 0.537 L 13.409845458984375 0.537 L 13.409845458984375 0.08400000000000007 M 14.449371826171875 0.018000000000000016 L 14.347371826171875 0.018000000000000016 L 14.347371826171875 1.068 L 14.413371826171876 1.068 L 14.413371826171876 0.21150000000000002 L 14.419371826171876 0.21150000000000002 L 14.882871826171876 1.086 L 14.909871826171875 1.086 L 15.383871826171875 0.21750000000000003 L 15.389871826171875 0.21750000000000003 L 15.389871826171875 1.068 L 15.526371826171875 1.068 L 15.526371826171875 0.018000000000000016 L 15.422871826171875 0.018000000000000016 L 14.936871826171876 0.9195000000000001 L 14.930871826171876 0.9195000000000001 L 14.449371826171875 0.018000000000000016 M 16.466873291015624 0.7590000000000001 L 16.610873291015626 1.068 L 16.756373291015624 1.068 L 16.267373291015623 0.018000000000000016 L 16.192373291015624 0.018000000000000016 L 15.748373291015625 1.068 L 15.817373291015626 1.068 L 15.949373291015625 0.7590000000000001 L 16.466873291015624 0.7590000000000001 M 16.435373291015626 0.6915 L 15.977873291015625 0.6915 L 16.193873291015624 0.18600000000000005 L 16.199873291015624 0.18600000000000005 L 16.435373291015626 0.6915 M 17.186872558593752 1.068 L 17.186872558593752 0.10050000000000003 L 17.588872558593753 0.10050000000000003 L 17.588872558593753 0.018000000000000016 L 16.648372558593753 0.018000000000000016 L 16.648372558593753 0.10050000000000003 L 17.05037255859375 0.10050000000000003 L 17.05037255859375 1.068 L 17.186872558593752 1.068 M 17.85586083984375 0.018000000000000016 L 17.85586083984375 1.068 L 17.99236083984375 1.068 L 17.99236083984375 0.018000000000000016 L 17.85586083984375 0.018000000000000016 M 18.409376953125 1.068 L 18.545876953125003 1.068 L 18.545876953125003 0.6990000000000001 L 18.715376953125002 0.5175000000000001 L 19.114376953125003 1.068 L 19.270376953125 1.068 L 18.802376953125002 0.4245000000000001 L 19.183376953125002 0.018000000000000016 L 19.108376953125003 0.018000000000000016 L 18.545876953125003 0.609 L 18.545876953125003 0.018000000000000016 L 18.409376953125 0.018000000000000016 L 18.409376953125 1.068" fill="#461d16" fill-rule="nonzero"></path></g><g></g></g><defs><clipPath id="SvgjsClipPath113227"><path d=" M 1.2938848158972167 -6.114138252818923 h 16.72760585648682 v 5.864138252818923 h -16.72760585648682 Z"></path></clipPath><clipPath id="SvgjsClipPath113222c369d12f-d6cf-45b8-b19e-4b5d07aa02b1"><path d=" M 1.2938848158972167 -6.114138252818923 L 18.02149067238404 -6.114138252818923 L 18.02149067238404 -0.25 L 1.2938848158972167 -0.25 Z"></path></clipPath></defs></svg>